<svg height="496pt" viewBox="0 0 496 496" width="496pt" xmlns="http://www.w3.org/2000/svg"><g fill="#f0bc5e"><path d="m400 208c-15.128906 0-29.03125 5.304688-40 14.121094v113.878906h-24v16h18.425781l21.574219-14.382812 24 16 24-16 21.574219 14.382812h18.425781v-80c0-35.289062-28.710938-64-64-64zm0 0"/><path d="m136 226.257812c-12.976562-4.609374-28.078125-1.488281-37.9375 8.367188l-2.0625 2.0625-2.0625-2.0625c-6.847656-6.847656-15.960938-10.625-25.65625-10.625-20.007812 0-36.28125 16.273438-36.28125 36.28125 0 9.695312 3.777344 18.808594 10.625 25.65625l53.375 53.375 40-40zm0 0"/><path d="m336 202.230469-19.648438-6.542969 9.265626-18.519531-30.785157-30.785157-18.519531 9.265626-6.542969-19.648438h-43.53125l-6.542969 19.648438-18.519531-9.265626-30.785156 30.785157 9.265625 18.519531-19.65625 6.542969v43.53125l19.648438 6.542969-9.265626 18.519531 30.785157 30.785156 18.519531-9.265625 6.542969 19.65625h43.53125l6.542969-19.648438 18.519531 9.265626 30.785156-30.785157-9.265625-18.519531 19.65625-6.542969zm-88 53.769531c-17.671875 0-32-14.328125-32-32s14.328125-32 32-32 32 14.328125 32 32-14.328125 32-32 32zm0 0"/></g><path d="m216 32h64v16h-64zm0 0"/><path d="m296 32h16v16h-16zm0 0"/><path d="m184 32h16v16h-16zm0 0"/><path d="m224 448h48v16h-48zm0 0"/><path d="m496 176h-96v-136c0-22.054688-17.945312-40-40-40h-224c-22.054688 0-40 17.945312-40 40v136h-96v208h96v72c0 22.054688 17.945312 40 40 40h224c22.054688 0 40-17.945312 40-40v-72h96zm-360-160h224c13.230469 0 24 10.769531 24 24v24h-272v-24c0-13.230469 10.769531-24 24-24zm-24 64h272v96h-16v-72h-240v72h-16zm32 248v-208h208v208zm-128-136h112v152h48v24h-160zm368 264c0 13.230469-10.769531 24-24 24h-224c-13.230469 0-24-10.769531-24-24v-24h272zm0-40h-272v-32h80v-40h112v40h80zm96-48h-160v-24h48v-152h112zm0 0"/><path d="m248 184c-22.054688 0-40 17.945312-40 40s17.945312 40 40 40 40-17.945312 40-40-17.945312-40-40-40zm0 64c-13.230469 0-24-10.769531-24-24s10.769531-24 24-24 24 10.769531 24 24-10.769531 24-24 24zm0 0"/></svg>